# xmcd
#
# Track frame offsets:
#	150
#	19685
#	44615
#	67945
#	83465
#	112667
#	127722
#	154685
#	175075
#	179680
#	206035
#	228055
#
# Disc length: 3255 seconds
# Revision: 0
# Processed by: cddbd v1.5.2PL0 Copyright (c) Steve Scherf et al.
# Submitted via: dBpowerAMP V12.0
#
DISCID=870cb50c
DTITLE=上海樂團管弦樂團及合唱團 - 黃河大合唱
DYEAR=1993
DGENRE=Folk
TTITLE0=黃河船夫曲
TTITLE1=黃河頌
TTITLE2=黃水謠
TTITLE3=河邊對口曲
TTITLE4=黃河怨
TTITLE5=保衛黃河
TTITLE6=怒吼吧!黃河
TTITLE7=東方紅
TTITLE8=義勇軍進行曲
TTITLE9=國際歌
TTITLE10=我的祖國
TTITLE11=血染的風采
EXTD=
EXTT0=
EXTT1=
EXTT2=
EXTT3=
EXTT4=
EXTT5=
EXTT6=
EXTT7=
EXTT8=
EXTT9=
EXTT10=
EXTT11=
PLAYORDER=
